<svg version="1.1" viewBox="0.0 0.0 1024.0 768.0" fill="none" stroke="none" stroke-linecap="square" stroke-miterlimit="10" xmlns:xlink="http://www.w3.org/1999/xlink" xmlns="http://www.w3.org/2000/svg"><clipPath id="p.0"><path d="m0 0l1024.0 0l0 768.0l-1024.0 0l0 -768.0z" clip-rule="nonzero"/></clipPath><g clip-path="url(#p.0)"><path fill="#000000" fill-opacity="0.0" d="m0 0l1024.0 0l0 768.0l-1024.0 0z" fill-rule="evenodd"/><path fill="#000000" fill-opacity="0.0" d="m143.92914 488.9122l191.05511 0l0 155.93704l-191.05511 0z" fill-rule="evenodd"/><path fill="#ffffff" d="m211.54263 533.00946l0 12.65625l-20.578125 0l0 55.875l-15.046875 0l0 -55.875l-20.53125 0l0 -12.65625l56.15625 0zm20.015625 0l0 25.828125l0.328125 0q2.15625 -3.703125 6.109375 -5.96875q3.96875 -2.28125 8.46875 -2.28125q9.46875 0 13.75 4.828125q4.296875 4.828125 4.296875 15.09375l0 31.03125l-13.640625 0l0 -28.453125q0 -5.8125 -2.0 -8.78125q-1.984375 -2.984375 -6.71875 -2.984375q-5.671875 0 -8.140625 3.375q-2.453125 3.375 -2.453125 10.359375l0 26.484375l-13.59375 0l0 -68.53125l13.59375 0zm66.234375 17.578125q11.015625 0 17.59375 7.578125q6.59375 7.5625 6.59375 19.328125l-0.09375 2.53125l-35.8125 0q0.28125 6.421875 3.34375 9.515625q3.078125 3.09375 8.796875 3.09375q3.703125 0 6.84375 -1.890625q3.140625 -1.90625 3.984375 -4.578125l12.0 0q-2.765625 8.4375 -8.53125 12.59375q-5.765625 4.140625 -14.71875 4.140625q-11.484375 0 -18.421875 -7.265625q-6.9375 -7.265625 -6.9375 -18.84375q0 -11.109375 7.09375 -18.65625q7.109375 -7.546875 18.265625 -7.546875zm-11.71875 20.8125l22.171875 0q-0.984375 -5.484375 -3.546875 -8.015625q-2.546875 -2.53125 -7.375 -2.53125q-4.96875 0 -7.875 2.8125q-2.90625 2.8125 -3.375 7.734375z" fill-rule="nonzero"/><path fill="#000000" fill-opacity="0.0" d="m126.92913 484.9122l216.06299 0l0 155.93704l-216.06299 0z" fill-rule="evenodd"/><path fill="#666666" d="m207.04657 529.00946l0 12.65625l-20.578125 0l0 55.875l-15.046875 0l0 -55.875l-20.53125 0l0 -12.65625l56.15625 0zm20.015625 0l0 25.828125l0.328125 0q2.15625 -3.703125 6.109375 -5.96875q3.96875 -2.28125 8.46875 -2.28125q9.46875 0 13.75 4.828125q4.296875 4.828125 4.296875 15.09375l0 31.03125l-13.640625 0l0 -28.453125q0 -5.8125 -2.0 -8.78125q-1.984375 -2.984375 -6.71875 -2.984375q-5.671875 0 -8.140625 3.375q-2.453125 3.375 -2.453125 10.359375l0 26.484375l-13.59375 0l0 -68.53125l13.59375 0zm66.234375 17.578125q11.015625 0 17.59375 7.578125q6.59375 7.5625 6.59375 19.328125l-0.09375 2.53125l-35.8125 0q0.28125 6.421875 3.34375 9.515625q3.078125 3.09375 8.796875 3.09375q3.703125 0 6.84375 -1.890625q3.140625 -1.90625 3.984375 -4.578125l12.0 0q-2.765625 8.4375 -8.53125 12.59375q-5.765625 4.140625 -14.71875 4.140625q-11.484375 0 -18.421875 -7.265625q-6.9375 -7.265625 -6.9375 -18.84375q0 -11.109375 7.09375 -18.65625q7.109375 -7.546875 18.265625 -7.546875zm-11.71875 20.8125l22.171875 0q-0.984375 -5.484375 -3.546875 -8.015625q-2.546875 -2.53125 -7.375 -2.53125q-4.96875 0 -7.875 2.8125q-2.90625 2.8125 -3.375 7.734375z" fill-rule="nonzero"/><path fill="#000000" fill-opacity="0.0" d="m193.92783 607.8886l673.0078 0l0 62.236206l-673.0078 0z" fill-rule="evenodd"/><path fill="#ffffff" d="m289.49426 648.3936l0 16.875l-27.4375 0l0 74.5l-20.0625 0l0 -74.5l-27.375 0l0 -16.875l74.875 0zm39.125 23.4375q14.6875 0 23.46875 10.09375q8.78125 10.09375 8.78125 25.78125l-0.125 3.375l-47.75 0q0.375 8.5625 4.46875 12.6875q4.09375 4.125 11.71875 4.125q4.9375 0 9.125 -2.53125q4.1875 -2.53125 5.3125 -6.09375l16.0 0q-3.6875 11.25 -11.375 16.78125q-7.6875 5.53125 -19.625 5.53125q-15.3125 0 -24.5625 -9.6875q-9.25 -9.6875 -9.25 -25.125q0 -14.8125 9.46875 -24.875q9.46875 -10.0625 24.34375 -10.0625zm-15.625 27.75l29.5625 0q-1.3125 -7.3125 -4.71875 -10.6875q-3.40625 -3.375 -9.84375 -3.375q-6.625 0 -10.5 3.75q-3.875 3.75 -4.5 10.3125zm77.25 -51.1875l0 91.375l-18.1875 0l0 -91.375l18.1875 0zm46.4375 23.4375q15.5625 0 24.9375 9.59375q9.375 9.59375 9.375 25.34375q0 15.8125 -9.46875 25.3125q-9.46875 9.5 -24.84375 9.5q-15.375 0 -24.78125 -9.5625q-9.40625 -9.5625 -9.40625 -25.25q0 -15.6875 9.25 -25.3125q9.25 -9.625 24.9375 -9.625zm-16.0 34.9375q0 10.4375 4.28125 15.78125q4.28125 5.34375 11.71875 5.34375q7.75 0 11.9375 -5.53125q4.1875 -5.53125 4.1875 -15.59375q0 -9.875 -4.0625 -15.5625q-4.0625 -5.6875 -12.1875 -5.6875q-7.3125 0 -11.59375 5.28125q-4.28125 5.28125 -4.28125 15.96875zm89.1875 -34.9375q13.5 0 20.84375 5.34375q7.34375 5.34375 8.34375 15.71875l-17.3125 0q-0.375 -4.6875 -3.5 -6.8125q-3.125 -2.125 -8.9375 -2.125q-5.25 0 -7.65625 1.5625q-2.40625 1.5625 -2.40625 4.5625q0 3.0625 3.15625 5.03125q3.15625 1.96875 12.71875 3.78125q15.25 2.9375 20.46875 7.5625q5.21875 4.625 5.21875 12.125q0 11.25 -8.21875 17.125q-8.21875 5.875 -21.96875 5.875q-13.75 0 -22.15625 -5.84375q-8.40625 -5.84375 -8.96875 -17.46875l17.3125 0q0 5.25 3.96875 8.1875q3.96875 2.9375 9.96875 2.9375q5.3125 0 8.625 -2.28125q3.3125 -2.28125 3.3125 -6.15625q0 -3.4375 -4.3125 -5.625q-4.3125 -2.1875 -15.8125 -4.5625q-11.375 -2.25 -16.4375 -6.4375q-5.0625 -4.1875 -5.0625 -11.3125q0 -10.5 7.4375 -15.84375q7.4375 -5.34375 21.375 -5.34375zm73.3125 0q12.8125 0 21.59375 6.625q8.78125 6.625 9.53125 18.4375l-17.8125 0q-0.8125 -5.6875 -4.1875 -8.53125q-3.375 -2.84375 -9.25 -2.84375q-7.3125 0 -11.375 6.0q-4.0625 6.0 -4.0625 15.5q0 9.5 4.0 15.1875q4.0 5.6875 11.0625 5.6875q6.0625 0 9.8125 -3.46875q3.75 -3.46875 4.6875 -10.03125l17.5 0q-1.8125 13.125 -10.25 20.15625q-8.4375 7.03125 -21.625 7.03125q-14.75 0 -24.0625 -9.46875q-9.3125 -9.46875 -9.3125 -24.46875q0 -16.0625 9.15625 -25.9375q9.15625 -9.875 24.59375 -9.875zm73.9375 0q15.5625 0 24.9375 9.59375q9.375 9.59375 9.375 25.34375q0 15.8125 -9.46875 25.3125q-9.46875 9.5 -24.84375 9.5q-15.375 0 -24.78125 -9.5625q-9.40625 -9.5625 -9.40625 -25.25q0 -15.6875 9.25 -25.3125q9.25 -9.625 24.9375 -9.625zm-16.0 34.9375q0 10.4375 4.28125 15.78125q4.28125 5.34375 11.71875 5.34375q7.75 0 11.9375 -5.53125q4.1875 -5.53125 4.1875 -15.59375q0 -9.875 -4.0625 -15.5625q-4.0625 -5.6875 -12.1875 -5.6875q-7.3125 0 -11.59375 5.28125q-4.28125 5.28125 -4.28125 15.96875zm99.31244 -34.9375q14.0625 0 22.0625 9.84375q8.0 9.84375 8.0 25.71875q0 14.6875 -7.875 24.4375q-7.875 9.75 -21.1875 9.75q-6.0625 0 -11.3125 -2.59375q-5.25 -2.59375 -8.5 -7.40625l-0.3125 0l0 31.5l-18.124939 0l0 -89.5l17.249939 0l0 8.4375l0.25 0q3.25 -5.1875 8.28125 -7.6875q5.03125 -2.5 11.46875 -2.5zm-19.75 35.0625q0 9.5 4.0625 15.25q4.0625 5.75 11.8125 5.75q7.5625 0 11.65625 -5.5q4.09375 -5.5 4.09375 -15.5q0 -9.5 -4.0625 -15.4375q-4.0625 -5.9375 -11.9375 -5.9375q-7.5 0 -11.5625 5.625q-4.0625 5.625 -4.0625 15.75zm91.25 -35.0625q14.6875 0 23.46875 10.09375q8.78125 10.09375 8.78125 25.78125l-0.125 3.375l-47.75 0q0.375 8.5625 4.46875 12.6875q4.09375 4.125 11.71875 4.125q4.9375 0 9.125 -2.53125q4.1875 -2.53125 5.3125 -6.09375l16.0 0q-3.6875 11.25 -11.375 16.78125q-7.6875 5.53125 -19.625 5.53125q-15.3125 0 -24.5625 -9.6875q-9.25 -9.6875 -9.25 -25.125q0 -14.8125 9.46875 -24.875q9.46875 -10.0625 24.34375 -10.0625zm-15.625 27.75l29.5625 0q-1.3125 -7.3125 -4.71875 -10.6875q-3.40625 -3.375 -9.84375 -3.375q-6.625 0 -10.5 3.75q-3.875 3.75 -4.5 10.3125z" fill-rule="nonzero"/><path fill="#000000" fill-opacity="0.0" d="m188.92783 602.8886l673.0078 0l0 62.236206l-673.0078 0z" fill-rule="evenodd"/><path fill="#333333" d="m284.49426 643.3936l0 16.875l-27.4375 0l0 74.5l-20.0625 0l0 -74.5l-27.375 0l0 -16.875l74.875 0zm39.125 23.4375q14.6875 0 23.46875 10.09375q8.78125 10.09375 8.78125 25.78125l-0.125 3.375l-47.75 0q0.375 8.5625 4.46875 12.6875q4.09375 4.125 11.71875 4.125q4.9375 0 9.125 -2.53125q4.1875 -2.53125 5.3125 -6.09375l16.0 0q-3.6875 11.25 -11.375 16.78125q-7.6875 5.53125 -19.625 5.53125q-15.3125 0 -24.5625 -9.6875q-9.25 -9.6875 -9.25 -25.125q0 -14.8125 9.46875 -24.875q9.46875 -10.0625 24.34375 -10.0625zm-15.625 27.75l29.5625 0q-1.3125 -7.3125 -4.71875 -10.6875q-3.40625 -3.375 -9.84375 -3.375q-6.625 0 -10.5 3.75q-3.875 3.75 -4.5 10.3125zm77.25 -51.1875l0 91.375l-18.1875 0l0 -91.375l18.1875 0zm46.4375 23.4375q15.5625 0 24.9375 9.59375q9.375 9.59375 9.375 25.34375q0 15.8125 -9.46875 25.3125q-9.46875 9.5 -24.84375 9.5q-15.375 0 -24.78125 -9.5625q-9.40625 -9.5625 -9.40625 -25.25q0 -15.6875 9.25 -25.3125q9.25 -9.625 24.9375 -9.625zm-16.0 34.9375q0 10.4375 4.28125 15.78125q4.28125 5.34375 11.71875 5.34375q7.75 0 11.9375 -5.53125q4.1875 -5.53125 4.1875 -15.59375q0 -9.875 -4.0625 -15.5625q-4.0625 -5.6875 -12.1875 -5.6875q-7.3125 0 -11.59375 5.28125q-4.28125 5.28125 -4.28125 15.96875zm89.1875 -34.9375q13.5 0 20.84375 5.34375q7.34375 5.34375 8.34375 15.71875l-17.3125 0q-0.375 -4.6875 -3.5 -6.8125q-3.125 -2.125 -8.9375 -2.125q-5.25 0 -7.65625 1.5625q-2.40625 1.5625 -2.40625 4.5625q0 3.0625 3.15625 5.03125q3.15625 1.96875 12.71875 3.78125q15.25 2.9375 20.46875 7.5625q5.21875 4.625 5.21875 12.125q0 11.25 -8.21875 17.125q-8.21875 5.875 -21.96875 5.875q-13.75 0 -22.15625 -5.84375q-8.40625 -5.84375 -8.96875 -17.46875l17.3125 0q0 5.25 3.96875 8.1875q3.96875 2.9375 9.96875 2.9375q5.3125 0 8.625 -2.28125q3.3125 -2.28125 3.3125 -6.15625q0 -3.4375 -4.3125 -5.625q-4.3125 -2.1875 -15.8125 -4.5625q-11.375 -2.25 -16.4375 -6.4375q-5.0625 -4.1875 -5.0625 -11.3125q0 -10.5 7.4375 -15.84375q7.4375 -5.34375 21.375 -5.34375z" fill-rule="nonzero"/><path fill="#666666" d="m578.18176 666.8311q12.8125 0 21.59375 6.625q8.78125 6.625 9.53125 18.4375l-17.8125 0q-0.8125 -5.6875 -4.1875 -8.53125q-3.375 -2.84375 -9.25 -2.84375q-7.3125 0 -11.375 6.0q-4.0625 6.0 -4.0625 15.5q0 9.5 4.0 15.1875q4.0 5.6875 11.0625 5.6875q6.0625 0 9.8125 -3.46875q3.75 -3.46875 4.6875 -10.03125l17.5 0q-1.8125 13.125 -10.25 20.15625q-8.4375 7.03125 -21.625 7.03125q-14.75 0 -24.0625 -9.46875q-9.3125 -9.46875 -9.3125 -24.46875q0 -16.0625 9.15625 -25.9375q9.15625 -9.875 24.59375 -9.875zm73.9375 0q15.5625 0 24.9375 9.59375q9.375 9.59375 9.375 25.34375q0 15.8125 -9.46875 25.3125q-9.46875 9.5 -24.84375 9.5q-15.375 0 -24.78125 -9.5625q-9.40625 -9.5625 -9.40625 -25.25q0 -15.6875 9.25 -25.3125q9.25 -9.625 24.9375 -9.625zm-16.0 34.9375q0 10.4375 4.28125 15.78125q4.28125 5.34375 11.71875 5.34375q7.75 0 11.9375 -5.53125q4.1875 -5.53125 4.1875 -15.59375q0 -9.875 -4.0625 -15.5625q-4.0625 -5.6875 -12.1875 -5.6875q-7.3125 0 -11.59375 5.28125q-4.28125 5.28125 -4.28125 15.96875zm99.31244 -34.9375q14.0625 0 22.0625 9.84375q8.0 9.84375 8.0 25.71875q0 14.6875 -7.875 24.4375q-7.875 9.75 -21.1875 9.75q-6.0625 0 -11.3125 -2.59375q-5.25 -2.59375 -8.5 -7.40625l-0.3125 0l0 31.5l-18.124939 0l0 -89.5l17.249939 0l0 8.4375l0.25 0q3.25 -5.1875 8.28125 -7.6875q5.03125 -2.5 11.46875 -2.5zm-19.75 35.0625q0 9.5 4.0625 15.25q4.0625 5.75 11.8125 5.75q7.5625 0 11.65625 -5.5q4.09375 -5.5 4.09375 -15.5q0 -9.5 -4.0625 -15.4375q-4.0625 -5.9375 -11.9375 -5.9375q-7.5 0 -11.5625 5.625q-4.0625 5.625 -4.0625 15.75zm91.25 -35.0625q14.6875 0 23.46875 10.09375q8.78125 10.09375 8.78125 25.78125l-0.125 3.375l-47.75 0q0.375 8.5625 4.46875 12.6875q4.09375 4.125 11.71875 4.125q4.9375 0 9.125 -2.53125q4.1875 -2.53125 5.3125 -6.09375l16.0 0q-3.6875 11.25 -11.375 16.78125q-7.6875 5.53125 -19.625 5.53125q-15.3125 0 -24.5625 -9.6875q-9.25 -9.6875 -9.25 -25.125q0 -14.8125 9.46875 -24.875q9.46875 -10.0625 24.34375 -10.0625zm-15.625 27.75l29.5625 0q-1.3125 -7.3125 -4.71875 -10.6875q-3.40625 -3.375 -9.84375 -3.375q-6.625 0 -10.5 3.75q-3.875 3.75 -4.5 10.3125z" fill-rule="nonzero"/><path fill="#000000" fill-opacity="0.0" d="m366.0 503.40826l23.425995 -44.503906l51.132263 0l23.425995 44.503906l-23.425995 44.503906l-51.132263 0z" fill-rule="evenodd"/><path stroke="#ffffff" stroke-width="24.0" stroke-linejoin="round" stroke-linecap="butt" d="m366.0 503.40826l23.425995 -44.503906l51.132263 0l23.425995 44.503906l-23.425995 44.503906l-51.132263 0z" fill-rule="evenodd"/><path fill="#000000" fill-opacity="0.0" d="m262.0 439.40826l23.425995 -44.503906l51.132263 0l23.425995 44.503906l-23.425995 44.503937l-51.132263 0z" fill-rule="evenodd"/><path stroke="#ffffff" stroke-width="24.0" stroke-linejoin="round" stroke-linecap="butt" d="m262.0 439.40826l23.425995 -44.503906l51.132263 0l23.425995 44.503906l-23.425995 44.503937l-51.132263 0z" fill-rule="evenodd"/><path fill="#000000" fill-opacity="0.0" d="m262.0 319.40826l23.425995 -44.503906l51.132263 0l23.425995 44.503906l-23.425995 44.503937l-51.132263 0z" fill-rule="evenodd"/><path stroke="#ffffff" stroke-width="24.0" stroke-linejoin="round" stroke-linecap="butt" d="m262.0 319.40826l23.425995 -44.503906l51.132263 0l23.425995 44.503906l-23.425995 44.503937l-51.132263 0z" fill-rule="evenodd"/><path fill="#000000" fill-opacity="0.0" d="m470.0 71.40828l23.425995 -44.503918l51.132294 0l23.425964 44.503918l-23.425964 44.503914l-51.132294 0z" fill-rule="evenodd"/><path stroke="#ffffff" stroke-width="24.0" stroke-linejoin="round" stroke-linecap="butt" d="m470.0 71.40828l23.425995 -44.503918l51.132294 0l23.425964 44.503918l-23.425964 44.503914l-51.132294 0z" fill-rule="evenodd"/><path fill="#000000" fill-opacity="0.0" d="m574.0 135.40828l23.425964 -44.503914l51.132324 0l23.425964 44.503914l-23.425964 44.50392l-51.132324 0z" fill-rule="evenodd"/><path stroke="#ffffff" stroke-width="24.0" stroke-linejoin="round" stroke-linecap="butt" d="m574.0 135.40828l23.425964 -44.503914l51.132324 0l23.425964 44.503914l-23.425964 44.50392l-51.132324 0z" fill-rule="evenodd"/><path fill="#000000" fill-opacity="0.0" d="m678.0 199.40828l23.425964 -44.50392l51.132324 0l23.425964 44.50392l-23.425964 44.50392l-51.132324 0z" fill-rule="evenodd"/><path stroke="#ffffff" stroke-width="24.0" stroke-linejoin="round" stroke-linecap="butt" d="m678.0 199.40828l23.425964 -44.50392l51.132324 0l23.425964 44.50392l-23.425964 44.50392l-51.132324 0z" fill-rule="evenodd"/><path fill="#000000" fill-opacity="0.0" d="m678.0 319.40826l23.425964 -44.503906l51.132324 0l23.425964 44.503906l-23.425964 44.503937l-51.132324 0z" fill-rule="evenodd"/><path stroke="#ffffff" stroke-width="24.0" stroke-linejoin="round" stroke-linecap="butt" d="m678.0 319.40826l23.425964 -44.503906l51.132324 0l23.425964 44.503906l-23.425964 44.503937l-51.132324 0z" fill-rule="evenodd"/><path fill="#000000" fill-opacity="0.0" d="m678.0 439.40826l23.425964 -44.503906l51.132324 0l23.425964 44.503906l-23.425964 44.503937l-51.132324 0z" fill-rule="evenodd"/><path stroke="#ffffff" stroke-width="24.0" stroke-linejoin="round" stroke-linecap="butt" d="m678.0 439.40826l23.425964 -44.503906l51.132324 0l23.425964 44.503906l-23.425964 44.503937l-51.132324 0z" fill-rule="evenodd"/><path fill="#000000" fill-opacity="0.0" d="m574.0 503.40826l23.425964 -44.503906l51.132324 0l23.425964 44.503906l-23.425964 44.503906l-51.132324 0z" fill-rule="evenodd"/><path stroke="#ffffff" stroke-width="24.0" stroke-linejoin="round" stroke-linecap="butt" d="m574.0 503.40826l23.425964 -44.503906l51.132324 0l23.425964 44.503906l-23.425964 44.503906l-51.132324 0z" fill-rule="evenodd"/><path fill="#000000" fill-opacity="0.0" d="m470.0 567.40826l23.425995 -44.503906l51.132294 0l23.425964 44.503906l-23.425964 44.503906l-51.132294 0z" fill-rule="evenodd"/><path stroke="#ffffff" stroke-width="24.0" stroke-linejoin="round" stroke-linecap="butt" d="m470.0 567.40826l23.425995 -44.503906l51.132294 0l23.425964 44.503906l-23.425964 44.503906l-51.132294 0z" fill-rule="evenodd"/><path fill="#000000" fill-opacity="0.0" d="m366.0 135.40828l23.425995 -44.503914l51.132263 0l23.425995 44.503914l-23.425995 44.50392l-51.132263 0z" fill-rule="evenodd"/><path stroke="#ffffff" stroke-width="24.0" stroke-linejoin="round" stroke-linecap="butt" d="m366.0 135.40828l23.425995 -44.503914l51.132263 0l23.425995 44.503914l-23.425995 44.50392l-51.132263 0z" fill-rule="evenodd"/><path fill="#000000" fill-opacity="0.0" d="m261.0 199.40828l23.425995 -44.50392l51.132263 0l23.425995 44.50392l-23.425995 44.50392l-51.132263 0z" fill-rule="evenodd"/><path stroke="#ffffff" stroke-width="24.0" stroke-linejoin="round" stroke-linecap="butt" d="m261.0 199.40828l23.425995 -44.50392l51.132263 0l23.425995 44.50392l-23.425995 44.50392l-51.132263 0z" fill-rule="evenodd"/><path fill="#000000" fill-opacity="0.0" d="m356.0 132.40828l23.425995 -44.503914l51.132263 0l23.425995 44.503914l-23.425995 44.50392l-51.132263 0z" fill-rule="evenodd"/><path stroke="#909090" stroke-width="24.0" stroke-linejoin="round" stroke-linecap="butt" d="m356.0 132.40828l23.425995 -44.503914l51.132263 0l23.425995 44.503914l-23.425995 44.50392l-51.132263 0z" fill-rule="evenodd"/><path fill="#000000" fill-opacity="0.0" d="m460.0 68.40828l23.425995 -44.503918l51.132294 0l23.425964 44.503918l-23.425964 44.503914l-51.132294 0z" fill-rule="evenodd"/><path stroke="#333333" stroke-width="24.0" stroke-linejoin="round" stroke-linecap="butt" d="m460.0 68.40828l23.425995 -44.503918l51.132294 0l23.425964 44.503918l-23.425964 44.503914l-51.132294 0z" fill-rule="evenodd"/><path fill="#000000" fill-opacity="0.0" d="m252.0 196.40828l23.425995 -44.50392l51.132263 0l23.425995 44.50392l-23.425995 44.50392l-51.132263 0z" fill-rule="evenodd"/><path stroke="#333333" stroke-width="24.0" stroke-linejoin="round" stroke-linecap="butt" d="m252.0 196.40828l23.425995 -44.50392l51.132263 0l23.425995 44.50392l-23.425995 44.50392l-51.132263 0z" fill-rule="evenodd"/><path fill="#000000" fill-opacity="0.0" d="m252.0 316.40826l23.425995 -44.503906l51.132263 0l23.425995 44.503906l-23.425995 44.503937l-51.132263 0z" fill-rule="evenodd"/><path stroke="#909090" stroke-width="24.0" stroke-linejoin="round" stroke-linecap="butt" d="m252.0 316.40826l23.425995 -44.503906l51.132263 0l23.425995 44.503906l-23.425995 44.503937l-51.132263 0z" fill-rule="evenodd"/><path fill="#000000" fill-opacity="0.0" d="m252.0 436.40826l23.425995 -44.503906l51.132263 0l23.425995 44.503906l-23.425995 44.503937l-51.132263 0z" fill-rule="evenodd"/><path stroke="#333333" stroke-width="24.0" stroke-linejoin="round" stroke-linecap="butt" d="m252.0 436.40826l23.425995 -44.503906l51.132263 0l23.425995 44.503906l-23.425995 44.503937l-51.132263 0z" fill-rule="evenodd"/><path fill="#000000" fill-opacity="0.0" d="m564.0 132.40828l23.425964 -44.503914l51.132324 0l23.425964 44.503914l-23.425964 44.50392l-51.132324 0z" fill-rule="evenodd"/><path stroke="#909090" stroke-width="24.0" stroke-linejoin="round" stroke-linecap="butt" d="m564.0 132.40828l23.425964 -44.503914l51.132324 0l23.425964 44.503914l-23.425964 44.50392l-51.132324 0z" fill-rule="evenodd"/><path fill="#000000" fill-opacity="0.0" d="m668.0 196.40828l23.425964 -44.50392l51.132324 0l23.425964 44.50392l-23.425964 44.50392l-51.132324 0z" fill-rule="evenodd"/><path stroke="#333333" stroke-width="24.0" stroke-linejoin="round" stroke-linecap="butt" d="m668.0 196.40828l23.425964 -44.50392l51.132324 0l23.425964 44.50392l-23.425964 44.50392l-51.132324 0z" fill-rule="evenodd"/><path fill="#000000" fill-opacity="0.0" d="m668.0 316.40826l23.425964 -44.503906l51.132324 0l23.425964 44.503906l-23.425964 44.503937l-51.132324 0z" fill-rule="evenodd"/><path stroke="#909090" stroke-width="24.0" stroke-linejoin="round" stroke-linecap="butt" d="m668.0 316.40826l23.425964 -44.503906l51.132324 0l23.425964 44.503906l-23.425964 44.503937l-51.132324 0z" fill-rule="evenodd"/><path fill="#000000" fill-opacity="0.0" d="m668.0 436.40826l23.425964 -44.503906l51.132324 0l23.425964 44.503906l-23.425964 44.503937l-51.132324 0z" fill-rule="evenodd"/><path stroke="#333333" stroke-width="24.0" stroke-linejoin="round" stroke-linecap="butt" d="m668.0 436.40826l23.425964 -44.503906l51.132324 0l23.425964 44.503906l-23.425964 44.503937l-51.132324 0z" fill-rule="evenodd"/><path fill="#000000" fill-opacity="0.0" d="m356.0 500.40826l23.425995 -44.503906l51.132263 0l23.425995 44.503906l-23.425995 44.503906l-51.132263 0z" fill-rule="evenodd"/><path stroke="#909090" stroke-width="24.0" stroke-linejoin="round" stroke-linecap="butt" d="m356.0 500.40826l23.425995 -44.503906l51.132263 0l23.425995 44.503906l-23.425995 44.503906l-51.132263 0z" fill-rule="evenodd"/><path fill="#000000" fill-opacity="0.0" d="m460.0 564.40826l23.425995 -44.503906l51.132294 0l23.425964 44.503906l-23.425964 44.503906l-51.132294 0z" fill-rule="evenodd"/><path stroke="#333333" stroke-width="24.0" stroke-linejoin="round" stroke-linecap="butt" d="m460.0 564.40826l23.425995 -44.503906l51.132294 0l23.425964 44.503906l-23.425964 44.503906l-51.132294 0z" fill-rule="evenodd"/><path fill="#000000" fill-opacity="0.0" d="m564.0 500.40826l23.425964 -44.503906l51.132324 0l23.425964 44.503906l-23.425964 44.503906l-51.132324 0z" fill-rule="evenodd"/><path stroke="#909090" stroke-width="24.0" stroke-linejoin="round" stroke-linecap="butt" d="m564.0 500.40826l23.425964 -44.503906l51.132324 0l23.425964 44.503906l-23.425964 44.503906l-51.132324 0z" fill-rule="evenodd"/><path fill="#434343" d="m478.0647 155.53177l29.896698 8.327316l21.441864 -21.319443l-7.687317 29.239334l22.207031 21.674057l-29.896667 -8.327316l-21.441925 21.319443l7.6873474 -29.239334z" fill-rule="evenodd"/><path stroke="#ffffff" stroke-width="4.0" stroke-linejoin="round" stroke-linecap="butt" d="m478.0647 155.53177l29.896698 8.327316l21.441864 -21.319443l-7.687317 29.239334l22.207031 21.674057l-29.896667 -8.327316l-21.441925 21.319443l7.6873474 -29.239334z" fill-rule="evenodd"/><path fill="#666666" d="m589.5561 387.2105l25.280884 6.8673706l18.089172 -17.922485l-6.267639 24.68332l18.740112 18.308807l-25.280945 -6.86734l-18.089172 17.922455l6.267639 -24.68332z" fill-rule="evenodd"/><path stroke="#ffffff" stroke-width="4.0" stroke-linejoin="round" stroke-linecap="butt" d="m589.5561 387.2105l25.280884 6.8673706l18.089172 -17.922485l-6.267639 24.68332l18.740112 18.308807l-25.280945 -6.86734l-18.089172 17.922455l6.267639 -24.68332z" fill-rule="evenodd"/><path fill="#434343" d="m490.25092 444.91183l23.305664 7.056549l16.0802 -17.198273l-6.456604 22.637146l18.062866 16.323486l-23.305664 -7.056549l-16.08014 17.198273l6.4565735 -22.637177z" fill-rule="evenodd"/><path stroke="#ffffff" stroke-width="4.0" stroke-linejoin="round" stroke-linecap="butt" d="m490.25092 444.91183l23.305664 7.056549l16.0802 -17.198273l-6.456604 22.637146l18.062866 16.323486l-23.305664 -7.056549l-16.08014 17.198273l6.4565735 -22.637177z" fill-rule="evenodd"/><path fill="#ffffff" d="m535.7493 228.38794l10.501343 -18.249344l40.24933 0.24934387l-20.750671 35.750656l-12.0 -15.498688z" fill-rule="evenodd"/><path stroke="#ffffff" stroke-width="4.0" stroke-linejoin="round" stroke-linecap="butt" d="m535.7493 228.38794l10.501343 -18.249344l40.24933 0.24934387l-20.750671 35.750656l-12.0 -15.498688z" fill-rule="evenodd"/><path fill="#000000" fill-opacity="0.0" d="m554.0 230.38925l-107.49869 -5.0l-28.75064 26.750656l16.75064 38.498672l-13.0 11.249359l0.24935913 50.0l24.498657 72.50131l76.0 -16.501312l42.0 -28.498688l2.2520142 -14.501312l40.747986 -5.0l7.501343 -40.0z" fill-rule="evenodd"/><path stroke="#ffffff" stroke-width="12.0" stroke-linejoin="round" stroke-linecap="butt" d="m554.0 230.38925l-107.49869 -5.0l-28.75064 26.750656l16.75064 38.498672l-13.0 11.249359l0.24935913 50.0l24.498657 72.50131l76.0 -16.501312l42.0 -28.498688l2.2520142 -14.501312l40.747986 -5.0l7.501343 -40.0z" fill-rule="evenodd"/><path fill="#666666" d="m528.2493 228.13794l10.501343 -18.249344l40.24933 0.24934387l-20.750671 35.750656l-12.0 -15.498688z" fill-rule="evenodd"/><path stroke="#666666" stroke-width="4.0" stroke-linejoin="round" stroke-linecap="butt" d="m528.2493 228.13794l10.501343 -18.249344l40.24933 0.24934387l-20.750671 35.750656l-12.0 -15.498688z" fill-rule="evenodd"/><path fill="#b7b7b7" d="m546.0 229.63925l-107.49869 -5.0l-28.75064 26.750656l16.75064 38.498672l-13.0 11.249359l0.24935913 50.0l24.498657 72.50131l76.0 -16.501312l42.0 -28.498688l2.2520142 -14.501312l40.747986 -5.0l7.501343 -40.0z" fill-rule="evenodd"/><path stroke="#333333" stroke-width="12.0" stroke-linejoin="round" stroke-linecap="butt" d="m546.0 229.63925l-107.49869 -5.0l-28.75064 26.750656l16.75064 38.498672l-13.0 11.249359l0.24935913 50.0l24.498657 72.50131l76.0 -16.501312l42.0 -28.498688l2.2520142 -14.501312l40.747986 -5.0l7.501343 -40.0z" fill-rule="evenodd"/><path fill="#ffffff" d="m436.25378 315.46234l43.78839 14.026154l29.250977 -32.467102l-12.363953 41.921173l34.85211 30.000092l-43.78836 -14.026154l-29.250977 32.467102l12.363922 -41.921173z" fill-rule="evenodd"/><path fill="#333333" d="m451.37598 283.26328l85.49872 -36.123367l13.501282 88.49867l-36.50128 -45.125977z" fill-rule="evenodd"/></g></svg>